<svg xmlns="http://www.w3.org/2000/svg" width="131.035" height="47.374" viewBox="0 0 131.035 47.374"><g transform="translate(2 2)"><g fill="none" stroke="#fff" stroke-width="2"><rect width="127.035" height="43.374" stroke="none"/><rect x="-1" y="-1" width="129.035" height="45.374" fill="none"/></g><g transform="translate(18.333 8.329)"><g transform="translate(0 0)"><path d="M64.609,13.329a5.675,5.675,0,0,1,2.708-4.776,5.858,5.858,0,0,0-4.586-2.486c-1.955-.2-3.811,1.15-4.8,1.15S55.409,6.1,53.789,6.125A6.138,6.138,0,0,0,48.6,9.27c-2.212,3.839-.566,9.526,1.588,12.639,1.054,1.524,2.31,3.238,3.959,3.177,1.588-.061,2.189-1.028,4.11-1.028s2.46,1.028,4.141,1c1.711-.032,2.792-1.553,3.839-3.081a13.832,13.832,0,0,0,1.737-3.568A5.54,5.54,0,0,1,64.609,13.329ZM61.448,4.006A5.529,5.529,0,0,0,62.755,0a5.624,5.624,0,0,0-3.695,1.9,5.259,5.259,0,0,0-1.332,3.881,4.653,4.653,0,0,0,3.72-1.775Z" transform="translate(-47.55 0)" fill="#fff"/></g><path d="M5.3-1.228H4.547L3.928-2.865H1.451L.869-1.228H.107l2.24-5.84h.709ZM3.7-3.48,2.787-5.969A2.383,2.383,0,0,1,2.7-6.36H2.681a2.181,2.181,0,0,1-.094.391L1.68-3.48ZM9.19-5.4,7.528-1.228H6.872L5.292-5.4h.733l1.059,3.03a2.72,2.72,0,0,1,.147.582h.016a2.754,2.754,0,0,1,.13-.566L8.485-5.4Zm3.7,4.171h-.668V-1.88h-.016a1.4,1.4,0,0,1-1.283.749,1.371,1.371,0,0,1-.975-.33A1.143,1.143,0,0,1,9.6-2.336Q9.6-3.5,10.974-3.7l1.25-.175q0-1.063-.859-1.063A2.053,2.053,0,0,0,10-4.421v-.684A2.585,2.585,0,0,1,11.422-5.5q1.47,0,1.47,1.556Zm-.668-2.11L11.218-3.2a1.633,1.633,0,0,0-.7.23.664.664,0,0,0-.236.584.637.637,0,0,0,.218.5.842.842,0,0,0,.58.193A1.072,1.072,0,0,0,11.9-2.04a1.244,1.244,0,0,0,.324-.882Zm2.269-3.12a.423.423,0,0,1-.305-.122.412.412,0,0,1-.126-.31.419.419,0,0,1,.126-.312.42.42,0,0,1,.305-.124A.431.431,0,0,1,14.8-7.2a.416.416,0,0,1,.128.312.413.413,0,0,1-.128.305A.428.428,0,0,1,14.493-6.457Zm.326,5.229H14.15V-5.4h.668Zm2.02,0h-.668V-7.4h.668Zm4.338,0h-.668V-1.88h-.016a1.4,1.4,0,0,1-1.283.749,1.371,1.371,0,0,1-.975-.33,1.143,1.143,0,0,1-.352-.876q0-1.169,1.377-1.36l1.25-.175q0-1.063-.859-1.063a2.053,2.053,0,0,0-1.36.513v-.684A2.585,2.585,0,0,1,19.706-5.5q1.47,0,1.47,1.556Zm-.668-2.11L19.5-3.2a1.633,1.633,0,0,0-.7.23.664.664,0,0,0-.236.584.637.637,0,0,0,.218.5.842.842,0,0,0,.58.193,1.072,1.072,0,0,0,.821-.348,1.244,1.244,0,0,0,.324-.882Zm2.611,1.507H23.1v.6h-.668V-7.4H23.1v2.737h.016A1.579,1.579,0,0,1,24.561-5.5a1.529,1.529,0,0,1,1.256.56,2.312,2.312,0,0,1,.454,1.5,2.585,2.585,0,0,1-.509,1.676,1.7,1.7,0,0,1-1.393.629A1.372,1.372,0,0,1,23.119-1.831ZM23.1-3.513v.582a1.24,1.24,0,0,0,.336.878,1.116,1.116,0,0,0,.853.36,1.118,1.118,0,0,0,.951-.464,2.13,2.13,0,0,0,.344-1.291,1.681,1.681,0,0,0-.322-1.092,1.065,1.065,0,0,0-.872-.4,1.183,1.183,0,0,0-.937.405A1.488,1.488,0,0,0,23.1-3.513Zm4.9,2.285h-.668V-7.4h.668Zm4.7-1.918H29.766a1.56,1.56,0,0,0,.375,1.075,1.292,1.292,0,0,0,.986.379,2.049,2.049,0,0,0,1.3-.464v.627a2.421,2.421,0,0,1-1.454.4A1.763,1.763,0,0,1,29.578-1.7a2.325,2.325,0,0,1-.505-1.6,2.281,2.281,0,0,1,.552-1.586A1.77,1.77,0,0,1,31-5.5a1.568,1.568,0,0,1,1.267.529A2.207,2.207,0,0,1,32.71-3.5Zm-.684-.566a1.359,1.359,0,0,0-.279-.9.951.951,0,0,0-.764-.322,1.079,1.079,0,0,0-.8.338,1.534,1.534,0,0,0-.407.884ZM37.748-1.13a1.935,1.935,0,0,1-1.476-.584,2.165,2.165,0,0,1-.552-1.55,2.255,2.255,0,0,1,.574-1.641A2.065,2.065,0,0,1,37.846-5.5a1.87,1.87,0,0,1,1.456.574,2.277,2.277,0,0,1,.523,1.592,2.241,2.241,0,0,1-.564,1.6A1.977,1.977,0,0,1,37.748-1.13Zm.049-3.8a1.27,1.27,0,0,0-1.018.438A1.8,1.8,0,0,0,36.4-3.289a1.7,1.7,0,0,0,.379,1.169,1.287,1.287,0,0,0,1.014.428,1.221,1.221,0,0,0,1-.419,1.82,1.82,0,0,0,.348-1.193,1.852,1.852,0,0,0-.348-1.206A1.216,1.216,0,0,0,37.8-4.934Zm6.557,3.706h-.668V-3.606q0-1.328-.969-1.328a1.051,1.051,0,0,0-.829.377,1.4,1.4,0,0,0-.328.951v2.379h-.668V-5.4h.668v.692h.016a1.505,1.505,0,0,1,1.368-.79,1.276,1.276,0,0,1,1.047.442,1.968,1.968,0,0,1,.362,1.277Zm5.478-.041a1.288,1.288,0,0,1-.623.13q-1.1,0-1.1-1.222V-4.828H47.4V-5.4h.717V-6.417l.668-.216V-5.4h1.051v.57H48.782v2.35a.974.974,0,0,0,.143.6A.569.569,0,0,0,49.4-1.7a.7.7,0,0,0,.436-.138Zm4.354.041h-.668v-2.4q0-1.3-.969-1.3a1.057,1.057,0,0,0-.823.377,1.4,1.4,0,0,0-.334.967v2.362h-.668V-7.4h.668v2.7h.016a1.517,1.517,0,0,1,1.368-.79q1.409,0,1.409,1.7ZM58.8-3.146H55.852a1.56,1.56,0,0,0,.375,1.075,1.292,1.292,0,0,0,.986.379,2.049,2.049,0,0,0,1.3-.464v.627a2.421,2.421,0,0,1-1.454.4A1.763,1.763,0,0,1,55.665-1.7a2.325,2.325,0,0,1-.505-1.6,2.28,2.28,0,0,1,.552-1.586,1.769,1.769,0,0,1,1.37-.613,1.568,1.568,0,0,1,1.267.529A2.208,2.208,0,0,1,58.8-3.5Zm-.684-.566a1.359,1.359,0,0,0-.279-.9.951.951,0,0,0-.764-.322,1.079,1.079,0,0,0-.8.338,1.534,1.534,0,0,0-.407.884Z" transform="translate(30.361 8.747)" fill="#fff"/><text transform="translate(30.379 20.021)" fill="#fff" font-size="10" font-family="Roboto-Medium, Roboto" font-weight="500"><tspan x="0" y="0">App Store</tspan></text></g></g></svg>