<svg xmlns="http://www.w3.org/2000/svg" width="131.035" height="47.374" viewBox="0 0 131.035 47.374"><g transform="translate(2 2)"><g fill="none" stroke="#fff" stroke-width="2"><rect width="127.035" height="43.374" stroke="none"/><rect x="-1" y="-1" width="129.035" height="45.374" fill="none"/></g><g transform="translate(10.001 12.466)"><path d="M952.139-294.21a1.423,1.423,0,0,1-.451-.074l9.848-9.848,3.188,3.079-.016.009-.026.015c-1.743.972-4.273,2.386-7.962,4.451l-3.8,2.129a1.46,1.46,0,0,1-.236.128A1.375,1.375,0,0,1,952.139-294.21Zm-.9-.321h0a1.394,1.394,0,0,1-.522-1.1V-312.99a1.4,1.4,0,0,1,.513-1.094l9.952,9.61-9.943,9.943Zm13.936-6.774h0l-3.288-3.176,3-3c2.589,1.448,3.445,1.924,3.454,1.93a1.4,1.4,0,0,1,.724,1.234,1.4,1.4,0,0,1-.724,1.233c-.036.02-.884.493-3.161,1.771Zm-3.643-3.518h0l-9.851-9.513a1.421,1.421,0,0,1,.456-.075,1.42,1.42,0,0,1,.783.238c5.326,2.982,9.094,5.091,11.517,6.446l-2.9,2.9Z" transform="translate(-950.717 314.411)" fill="#fff"/></g><path d="M7.06-1.748A5.315,5.315,0,0,1,4.4-1.072a3.636,3.636,0,0,1-2.752-1.1A4.025,4.025,0,0,1,.6-5.074,4.133,4.133,0,0,1,1.763-8.1,3.978,3.978,0,0,1,4.721-9.286,5.032,5.032,0,0,1,6.9-8.865v1.031a4.184,4.184,0,0,0-2.284-.61,2.853,2.853,0,0,0-2.189.92A3.365,3.365,0,0,0,1.572-5.14a3.367,3.367,0,0,0,.793,2.37,2.778,2.778,0,0,0,2.151.862A3.323,3.323,0,0,0,6.129-2.28V-4.508H4.388v-.843H7.06Zm6.286-2.068H9.338a2.123,2.123,0,0,0,.51,1.463,1.758,1.758,0,0,0,1.341.515,2.789,2.789,0,0,0,1.763-.632v.854a3.294,3.294,0,0,1-1.979.543,2.4,2.4,0,0,1-1.89-.773A3.165,3.165,0,0,1,8.4-4.02a3.1,3.1,0,0,1,.751-2.159,2.408,2.408,0,0,1,1.865-.834,2.134,2.134,0,0,1,1.724.721,3,3,0,0,1,.61,2Zm-.931-.77a1.85,1.85,0,0,0-.38-1.225A1.294,1.294,0,0,0,11-6.249a1.468,1.468,0,0,0-1.092.46,2.088,2.088,0,0,0-.554,1.2ZM17.353-1.26a1.753,1.753,0,0,1-.848.177q-1.491,0-1.491-1.663V-6.1h-.976v-.776h.976V-8.266l.909-.294v1.68h1.43V-6.1h-1.43v3.2a1.326,1.326,0,0,0,.194.815.774.774,0,0,0,.643.244.956.956,0,0,0,.593-.188Zm4.789-7.062a.576.576,0,0,1-.416-.166.561.561,0,0,1-.172-.421.57.57,0,0,1,.172-.424.571.571,0,0,1,.416-.169.587.587,0,0,1,.424.169.566.566,0,0,1,.175.424.562.562,0,0,1-.175.416A.582.582,0,0,1,22.142-8.322ZM22.586-1.2h-.909V-6.881h.909Zm4.473-.055a1.753,1.753,0,0,1-.848.177q-1.491,0-1.491-1.663V-6.1h-.976v-.776h.976V-8.266l.909-.294v1.68h1.43V-6.1h-1.43v3.2a1.326,1.326,0,0,0,.194.815.774.774,0,0,0,.643.244.956.956,0,0,0,.593-.188Zm6.7.188a2.633,2.633,0,0,1-2.009-.8,2.946,2.946,0,0,1-.751-2.109,3.069,3.069,0,0,1,.782-2.234,2.81,2.81,0,0,1,2.112-.8,2.546,2.546,0,0,1,1.982.782,3.1,3.1,0,0,1,.712,2.167,3.049,3.049,0,0,1-.768,2.176A2.69,2.69,0,0,1,33.755-1.072Zm.067-5.177a1.729,1.729,0,0,0-1.386.6,2.447,2.447,0,0,0-.51,1.643,2.314,2.314,0,0,0,.516,1.591,1.752,1.752,0,0,0,1.38.582,1.662,1.662,0,0,0,1.355-.571,2.478,2.478,0,0,0,.474-1.624,2.52,2.52,0,0,0-.474-1.641A1.655,1.655,0,0,0,33.821-6.249ZM42.746-1.2h-.909V-4.442q0-1.807-1.319-1.807a1.431,1.431,0,0,0-1.128.513,1.9,1.9,0,0,0-.446,1.294V-1.2h-.909V-6.881h.909v.942h.022a2.049,2.049,0,0,1,1.862-1.075,1.737,1.737,0,0,1,1.425.6,2.679,2.679,0,0,1,.493,1.738Z" transform="translate(34.848 19.158)" fill="#fff"/><path d="M9.877-6.336A3.65,3.65,0,0,1,8.224-5.159a6.742,6.742,0,0,1-2.4.4A4.728,4.728,0,0,1,3.38-5.385,4.172,4.172,0,0,1,1.739-7.177a6.27,6.27,0,0,1-.6-2.72v-.86a5.815,5.815,0,0,1,1.192-3.89,4.135,4.135,0,0,1,3.328-1.4,4.375,4.375,0,0,1,2.913.909,3.918,3.918,0,0,1,1.3,2.615H8a2.105,2.105,0,0,0-2.3-1.985,2.256,2.256,0,0,0-1.951.924,4.7,4.7,0,0,0-.69,2.71v.844a4.468,4.468,0,0,0,.751,2.763,2.476,2.476,0,0,0,2.086.984,2.75,2.75,0,0,0,2.083-.664V-9.1H5.711v-1.449H9.877Zm1.577-2.732a4.814,4.814,0,0,1,.475-2.162,3.472,3.472,0,0,1,1.336-1.479,3.763,3.763,0,0,1,1.977-.517,3.566,3.566,0,0,1,2.682,1.064,4.185,4.185,0,0,1,1.113,2.822l.008.43a4.857,4.857,0,0,1-.464,2.158A3.43,3.43,0,0,1,17.252-5.28a3.791,3.791,0,0,1-2,.521A3.542,3.542,0,0,1,12.491-5.91a4.407,4.407,0,0,1-1.038-3.067Zm1.834.158a3.29,3.29,0,0,0,.521,1.973,1.693,1.693,0,0,0,1.449.713A1.674,1.674,0,0,0,16.7-6.947a3.634,3.634,0,0,0,.517-2.12,3.247,3.247,0,0,0-.532-1.962,1.7,1.7,0,0,0-1.445-.724,1.683,1.683,0,0,0-1.426.713A3.565,3.565,0,0,0,13.287-8.909Zm6.965-.158a4.814,4.814,0,0,1,.475-2.162,3.472,3.472,0,0,1,1.336-1.479,3.763,3.763,0,0,1,1.977-.517,3.566,3.566,0,0,1,2.682,1.064,4.185,4.185,0,0,1,1.113,2.822l.008.43a4.857,4.857,0,0,1-.464,2.158A3.43,3.43,0,0,1,26.051-5.28a3.791,3.791,0,0,1-2,.521A3.542,3.542,0,0,1,21.289-5.91a4.407,4.407,0,0,1-1.038-3.067Zm1.834.158a3.29,3.29,0,0,0,.521,1.973,1.693,1.693,0,0,0,1.449.713A1.674,1.674,0,0,0,25.5-6.947a3.634,3.634,0,0,0,.517-2.12,3.247,3.247,0,0,0-.532-1.962,1.7,1.7,0,0,0-1.445-.724,1.683,1.683,0,0,0-1.426.713A3.565,3.565,0,0,0,22.085-8.909Zm6.987-.143a4.775,4.775,0,0,1,.894-3.037,2.87,2.87,0,0,1,2.373-1.136,2.689,2.689,0,0,1,2.2.973l.083-.822h1.653v7.915a3.29,3.29,0,0,1-1,2.535,3.808,3.808,0,0,1-2.7.928,4.348,4.348,0,0,1-1.754-.374,3.117,3.117,0,0,1-1.3-.977l.868-1.1a2.621,2.621,0,0,0,2.083,1,2.025,2.025,0,0,0,1.441-.494,1.894,1.894,0,0,0,.528-1.453v-.551a2.7,2.7,0,0,1-2.113.883A2.863,2.863,0,0,1,29.982-5.9,4.93,4.93,0,0,1,29.073-9.052Zm1.826.158a3.287,3.287,0,0,0,.5,1.935,1.614,1.614,0,0,0,1.392.706A1.765,1.765,0,0,0,34.438-7.2V-10.8a1.739,1.739,0,0,0-1.63-.928,1.62,1.62,0,0,0-1.407.717A3.681,3.681,0,0,0,30.9-8.894ZM40.1-4.91H38.271V-16.5H40.1Zm5.591.151a3.794,3.794,0,0,1-2.826-1.1,3.983,3.983,0,0,1-1.083-2.924v-.226a4.9,4.9,0,0,1,.472-2.184,3.59,3.59,0,0,1,1.324-1.5,3.5,3.5,0,0,1,1.9-.536,3.2,3.2,0,0,1,2.577,1.064,4.5,4.5,0,0,1,.909,3.011v.739H43.636a2.452,2.452,0,0,0,.675,1.6,2.028,2.028,0,0,0,1.49.589,2.483,2.483,0,0,0,2.052-1.019l.988.943a3.3,3.3,0,0,1-1.309,1.136A4.1,4.1,0,0,1,45.7-4.759Zm-.219-6.995a1.544,1.544,0,0,0-1.219.528,2.738,2.738,0,0,0-.592,1.471H47.16V-9.89a2.229,2.229,0,0,0-.49-1.392A1.532,1.532,0,0,0,45.477-11.754ZM56.328-8.984V-4.91H54.419V-15.9h4.2a4.25,4.25,0,0,1,2.924.959A3.226,3.226,0,0,1,62.628-12.4a3.119,3.119,0,0,1-1.06,2.515,4.456,4.456,0,0,1-2.969.9Zm0-1.539h2.294A2.259,2.259,0,0,0,60.176-11a1.761,1.761,0,0,0,.536-1.385,1.9,1.9,0,0,0-.543-1.422,2.094,2.094,0,0,0-1.494-.547H56.328ZM66.069-4.91H64.236V-16.5h1.834Zm6.874,0a2.829,2.829,0,0,1-.211-.762,2.854,2.854,0,0,1-2.143.913,2.88,2.88,0,0,1-2.007-.7A2.245,2.245,0,0,1,67.8-7.2a2.318,2.318,0,0,1,.97-2,4.7,4.7,0,0,1,2.773-.7h1.124v-.536a1.43,1.43,0,0,0-.355-1.015,1.406,1.406,0,0,0-1.079-.381,1.615,1.615,0,0,0-1.026.313.969.969,0,0,0-.4.8H67.978a2.035,2.035,0,0,1,.445-1.256,2.966,2.966,0,0,1,1.211-.917,4.254,4.254,0,0,1,1.709-.332,3.426,3.426,0,0,1,2.286.721,2.57,2.57,0,0,1,.875,2.026V-6.8a4.174,4.174,0,0,0,.309,1.758v.128ZM70.929-6.23a2.086,2.086,0,0,0,1.022-.264,1.764,1.764,0,0,0,.721-.709V-8.743h-.988a2.7,2.7,0,0,0-1.532.355,1.149,1.149,0,0,0-.513,1,1.072,1.072,0,0,0,.351.841A1.359,1.359,0,0,0,70.929-6.23Zm8.353-1.305,1.66-5.539H82.9l-3.245,9.4a2.637,2.637,0,0,1-2.535,2.06,3.269,3.269,0,0,1-.883-.137V-3.174l.347.023A1.785,1.785,0,0,0,77.626-3.4a1.674,1.674,0,0,0,.555-.848l.264-.7-2.867-8.121h1.977Z" transform="translate(34.166 38.187)" fill="#fff"/></g></svg>