<svg xmlns="http://www.w3.org/2000/svg" width="201.84" height="22" viewBox="0 0 201.84 22"><g transform="translate(-0.012 -3.007)"><path d="M-.107-346h-5a2.393,2.393,0,0,1-1.905-.975l-3.725-5.856a1.99,1.99,0,0,1,0-1.95l3.21-5.029a2.966,2.966,0,0,0-.022,1.558,4.691,4.691,0,0,0,.572,1.508l2.3,3.629c-.021-.05-.038-.094-.05-.134l3.049,4.787h0l4.381-6.907v-.005a1.715,1.715,0,0,0,.073-1.5l2.31,3.623a4.261,4.261,0,0,1,.543,3.09,4.224,4.224,0,0,0-.543-3.09l-2.312-3.629v0h0L-1.76-364h5a2.36,2.36,0,0,1,1.895.97l3.74,5.866a1.985,1.985,0,0,1,0,1.945l-3.282,5.147h0l-.407.648a2.2,2.2,0,0,1-1.822.968c-.037,0-.075,0-.113,0H-1.672L-.107-346Zm-4.618-7.251-2.223-3.491a4.015,4.015,0,0,1-.5-3.182l-.072.113c.017-.043.032-.078.047-.108l.427-.649a2.2,2.2,0,0,1,1.829-.97H-.2l-4.4,6.916a1.709,1.709,0,0,0-.128,1.369Z" transform="translate(11 368)" fill="#fff"/><text transform="translate(27.852 20.006)" fill="#fff" font-size="18" font-family="Roboto-Medium, Roboto" font-weight="500"><tspan x="0" y="0">KDB Bank Uzbekistan</tspan></text></g></svg>