<svg xmlns="http://www.w3.org/2000/svg" width="263.3" height="29.592" viewBox="0 0 263.3 29.592"><g transform="translate(-3.712 -2.87)"><text transform="translate(49.012 25)" fill="#f5f5f5" font-size="20" font-family="Roboto-Regular, Roboto"><tspan x="0" y="0">KDB BANK UZBEKISTAN</tspan></text><g transform="translate(12.212 12.367)"><g transform="translate(-8.5 -1.507)"><path d="M65.159-162a3.067,3.067,0,0,0-.009,3.021l5.794,9.09a3.685,3.685,0,0,0,2.952,1.512h7.756l-10.613-16.67c-.78-1.212-1.4-3.715-.795-4.932Z" transform="translate(-64.757 169.975)" fill="#fff"/></g><g transform="translate(-2.414 -4.598)"><path d="M70.327-170.785a3.415,3.415,0,0,0-2.992,1.5l-.643,1c-.605,1.217.014,3.72.795,4.932l3.578,5.63a2.643,2.643,0,0,1,.115-2.348l6.785-10.722Z" transform="translate(-66.448 170.788)" fill="#fff"/></g><g transform="translate(7.49 -9.497)"><path d="M69.385-172.019,80-155.342c.772,1.2,1.4,3.716.786,4.935l5.093-7.983a3.073,3.073,0,0,0,.009-3.024l-5.8-9.1a3.652,3.652,0,0,0-2.943-1.509Z" transform="translate(-69.385 172.019)" fill="#fff"/></g><g transform="translate(6.774 2.238)"><path d="M76.226-166.107l-6.8,10.725h7.643a3.427,3.427,0,0,0,3-1.508l.635-.993c.614-1.219-.014-3.73-.786-4.935l-3.588-5.634a2.638,2.638,0,0,1-.109,2.344" transform="translate(-69.429 168.451)" fill="#fff"/></g></g></g></svg>